{"title":"Dulha Mil Gaya - 2009 - Theatrical-Trailer - AVI - MP3 - xRG. HI","uid":5203578,"size":26057648,"categoryP":"video","categoryS":"movie_clips","magnet":"?xt=urn:btih:8e97cd0d4998b13af29e3b8e059ee2962a775c49&amp;dn=Dulha+Mil+Gaya+-+2009+-+Theatrical-Trailer+-+AVI+-+MP3+-+xRG.+HI&amp;tr=udp%3A%2F%2Ftracker.openbittorrent.com%3A80&amp;tr=udp%3A%2F%2Fopen.demonii.com%3A1337&amp;tr=udp%3A%2F%2Ftracker.coppersurfer.tk%3A6969&amp;tr=udp%3A%2F%2Fexodus.desync.com%3A6969","seeders":0,"leechers":1,"uploader":"sk044","files":1,"time":1260278207,"description":"screenshot\n\n\n &lt;a href=&quot;\nhttp://i584.photobucket.com/albums/ss284/sk044/1-12.jpg&quot; rel=&quot;nofollow&quot; target=&quot;_NEW&quot;&gt;\nhttp://i584.photobucket.com/albums/ss284/sk044/1-12.jpg&lt;/a&gt;\n &lt;a href=&quot;\nhttp://i584.photobucket.com/albums/ss284/sk044/3-8.jpg&quot; rel=&quot;nofollow&quot; target=&quot;_NEW&quot;&gt;\nhttp://i584.photobucket.com/albums/ss284/sk044/3-8.jpg&lt;/a&gt;\n &lt;a href=&quot;\nhttp://i584.photobucket.com/albums/ss284/sk044/5-7.jpg&quot; rel=&quot;nofollow&quot; target=&quot;_NEW&quot;&gt;\nhttp://i584.photobucket.com/albums/ss284/sk044/5-7.jpg&lt;/a&gt;\n\n\n\nrip info\n\n\nFormat                           : AVI\nFormat/Info                      : Audio Video Interleave\nFormat profile                   : OpenDML\nFile size                        : 24.9 MiB\nDuration                         : 1mn 46s\nOverall bit rate                 : 1 960 Kbps\nWriting application              : AVI-Mux GUI 1.17.7, Aug  8 2006  20:59:17\n\nVideo\nID                               : 0\nFormat                           : MPEG-4 Visual\nFormat profile                   : AdvancedSimple@L5\nFormat settings, BVOP            : Yes\nFormat settings, QPel            : No\nFormat settings, GMC             : No warppoints\nFormat settings, Matrix          : Default (H.263)\nCodec ID                         : XVID\nCodec ID/Hint                    : XviD\nDuration                         : 1mn 46s\nBit rate                         : 1 633 Kbps\nWidth                            : 688 pixels\nHeight                           : 288 pixels\nDisplay aspect ratio             : 2.35:1\nFrame rate                       : 29.970 fps\nResolution                       : 24 bits\nColorimetry                      : 4:2:0\nScan type                        : Progressive\nBits/(Pixel*Frame)               : 0.275\nStream size                      : 20.7 MiB (83%)\nWriting library                  : XviD 1.2.1 (UTC 2008-12-04)\n\nAudio\nID                               : 1\nFormat                           : MPEG Audio\nFormat version                   : Version 1\nFormat profile                   : Layer 3\nCodec ID                         : 55\nCodec ID/Hint                    : MP3\nDuration                         : 1mn 45s\nBit rate mode                    : Variable\nBit rate                         : 314 Kbps\nChannel(s)                       : 2 channels\nSampling rate                    : 48.0 KHz\nResolution                       : 16 bits\nStream size                      : 3.96 MiB (16%)\nAlignment                        : Aligned on interleaves\nInterleave, duration             : 24 ms (0.72 video frame)\nInterleave, preload duration     : 102 ms\nTitle                            : Dulha Mil Gaya - 2009 - Theatrical-Trailer - AVI - MP3 - xRG Tc0 L2 2ch 48 384 DELAY 0ms\nWriting library                  : LAME3.98r","torrent":{"xt":"urn:btih:8e97cd0d4998b13af29e3b8e059ee2962a775c49","amp;dn":"Dulha+Mil+Gaya+-+2009+-+Theatrical-Trailer+-+AVI+-+MP3+-+xRG.+HI","amp;tr":["udp%3A%2F%2Ftracker.openbittorrent.com%3A80","udp%3A%2F%2Fopen.demonii.com%3A1337","udp%3A%2F%2Ftracker.coppersurfer.tk%3A6969","udp%3A%2F%2Fexodus.desync.com%3A6969"],"infoHash":"8e97cd0d4998b13af29e3b8e059ee2962a775c49","infoHashBuffer":{"type":"Buffer","data":[142,151,205,13,73,152,177,58,242,158,59,142,5,158,226,150,42,119,92,73]},"announce":[],"urlList":[]}}